<svg width="209" height="50" viewBox="0 0 209 50" fill="none" xmlns="http://www.w3.org/2000/svg">
<path d="M69.7359 21.5917C69.7716 23.269 70.6281 26.4453 76.0885 26.4453C79.0506 26.4453 82.3697 25.7316 82.3697 22.5553C82.3697 20.1998 80.1213 19.5931 76.945 18.8436L73.733 18.0942C68.8793 16.9521 64.2041 15.8815 64.2041 9.27904C64.2041 5.92429 65.9885 0.0356445 75.7316 0.0356445C84.9393 0.0356445 87.4018 6.06705 87.4375 9.743H81.4061C81.2277 8.42251 80.728 5.21052 75.2676 5.21052C72.8765 5.21052 70.0571 6.10274 70.0571 8.81509C70.0571 11.1705 71.9843 11.6702 73.2334 11.9557L80.5496 13.7401C84.6538 14.7394 88.4011 16.4168 88.4011 21.8058C88.4011 30.8351 79.1934 31.6202 76.5524 31.6202C65.596 31.6202 63.7045 25.3033 63.7045 21.5917H69.7359Z" fill="#2D2D2D"/>
<path d="M116.131 20.3069C116.131 28.1942 111.349 31.5846 103.783 31.5846C101.035 31.5846 96.9307 30.9065 94.2541 27.9443C92.6124 26.0885 92.0057 23.6617 91.8986 20.6638V0.785156H98.2869V20.2712C98.2869 24.4468 100.714 26.3026 103.64 26.3026C107.959 26.3026 109.707 24.197 109.707 20.5567V0.785156H116.096V20.3069H116.131Z" fill="#2D2D2D"/>
<path d="M142.577 30.8351H119.129V25.5175L134.654 6.10279H119.557V0.785156H142.505V5.71021L126.767 25.4818H142.577V30.8351Z" fill="#2D2D2D"/>
<path d="M169.772 20.3069C169.772 28.1942 164.989 31.5846 157.423 31.5846C154.675 31.5846 150.571 30.9065 147.894 27.9443C146.253 26.0885 145.646 23.6617 145.539 20.6638V0.785156H151.927V20.2712C151.927 24.4468 154.354 26.3026 157.28 26.3026C161.599 26.3026 163.348 24.197 163.348 20.5567V0.785156H169.736V20.3069H169.772Z" fill="#2D2D2D"/>
<path d="M180.657 30.8351H174.375V0.785156H180.657V12.9907L192.113 0.785156H200.214L187.973 13.0621L200.928 30.7994H192.862L183.583 17.6303L180.657 20.6281V30.8351Z" fill="#2D2D2D"/>
<path d="M208.851 30.8351H202.57V0.785156H208.851V30.8351Z" fill="#2D2D2D"/>
<path d="M71.8415 49.6787H63.7045V38.6509H71.7344V39.9714H65.2034V43.3618H71.2348V44.6823H65.2034V48.3582H71.8415V49.6787Z" fill="#0046A6"/>
<path d="M79.122 48.3582H84.6894V49.6787H77.623V38.6509H79.122V48.3582Z" fill="#0046A6"/>
<path d="M98.2869 49.6787H90.1498V38.6509H98.1798V39.9714H91.6488V43.3618H97.6802V44.6823H91.6488V48.3582H98.2869V49.6787Z" fill="#0046A6"/>
<path d="M111.777 41.97C111.349 40.0428 109.743 39.6859 108.708 39.6859C106.709 39.6859 105.103 41.1492 105.103 44.0756C105.103 46.6809 106.031 48.6795 108.744 48.6795C109.707 48.6795 111.385 48.2155 111.884 45.6459H113.312C112.705 49.7858 109.315 50 108.494 50C105.996 50 103.533 48.3583 103.533 44.147C103.533 40.7566 105.46 38.4011 108.672 38.4011C111.527 38.4011 112.991 40.1499 113.205 42.0057H111.777V41.97Z" fill="#0046A6"/>
<path d="M118.023 38.6509H126.981V39.9714H123.269V49.6787H121.77V39.9714H118.059V38.6509H118.023Z" fill="#0046A6"/>
<path d="M133.869 49.6787H132.37V38.6509H137.473C139.293 38.6509 141.078 39.2933 141.078 41.613C141.078 43.2547 140.257 43.8258 139.543 44.254C140.186 44.5038 140.792 44.7894 140.864 46.324L140.971 48.3225C140.971 48.9292 141.078 49.1791 141.506 49.4289V49.6787H139.686C139.472 49.0006 139.436 47.3233 139.436 46.9307C139.436 46.0385 139.258 44.9678 137.473 44.9678H133.869V49.6787ZM133.869 43.683H137.33C138.437 43.683 139.579 43.3975 139.579 41.7915C139.579 40.0784 138.33 39.9357 137.616 39.9357H133.904V43.683H133.869Z" fill="#0046A6"/>
<path d="M151.606 49.9643C147.502 49.9643 146.253 46.5382 146.253 44.1827C146.253 41.7916 147.502 38.4011 151.606 38.4011C155.71 38.4011 156.959 41.8272 156.959 44.1827C156.959 46.5382 155.71 49.9643 151.606 49.9643ZM151.606 39.6859C149.215 39.6859 147.787 41.5774 147.787 44.1827C147.787 46.788 149.215 48.6795 151.606 48.6795C153.997 48.6795 155.425 46.788 155.425 44.1827C155.425 41.5774 153.997 39.6859 151.606 39.6859Z" fill="#0046A6"/>
<path d="M169.879 38.6509H171.306V49.6787H169.629L164.026 40.7922H163.99V49.6787H162.562V38.6509H164.311L169.807 47.5374H169.843V38.6509H169.879Z" fill="#0046A6"/>
<path d="M179.193 49.6787H177.73V38.6509H179.229V49.6787H179.193Z" fill="#0046A6"/>
<path d="M193.326 41.97C192.898 40.0428 191.292 39.6859 190.257 39.6859C188.258 39.6859 186.652 41.1492 186.652 44.0756C186.652 46.6809 187.58 48.6795 190.293 48.6795C191.256 48.6795 192.934 48.2155 193.433 45.6459H194.861C194.254 49.7858 190.864 50 190.043 50C187.545 50 185.082 48.3583 185.082 44.147C185.082 40.7566 187.009 38.4011 190.221 38.4011C193.076 38.4011 194.54 40.1499 194.754 42.0057H193.326V41.97Z" fill="#0046A6"/>
<path d="M207.138 41.8628C207.066 40.1498 205.639 39.6144 204.39 39.6144C203.462 39.6144 201.891 39.8643 201.891 41.5416C201.891 42.4695 202.534 42.7907 203.212 42.9335L206.353 43.6473C207.78 43.9685 208.851 44.8607 208.851 46.6094C208.851 49.2147 206.424 49.9285 204.532 49.9285C202.498 49.9285 201.677 49.3218 201.213 48.8578C200.285 48.0013 200.107 47.1091 200.107 46.0741H201.499C201.499 48.0727 203.141 48.6437 204.532 48.6437C205.603 48.6437 207.423 48.3582 207.423 46.7879C207.423 45.6458 206.888 45.2533 205.068 44.825L202.819 44.2897C202.106 44.1112 200.464 43.6116 200.464 41.6844C200.464 39.9713 201.57 38.2939 204.247 38.2939C208.101 38.2939 208.494 40.578 208.53 41.7914H207.138V41.8628Z" fill="#0046A6"/>
<path d="M49.9643 24.9822C49.9643 28.4083 49.2862 31.656 48.0371 34.6538C47.5375 34.7252 47.0378 34.7609 46.5382 34.7609H42.1842C40.828 37.1163 39.0435 39.1506 36.9022 40.7566H44.3612C39.7573 46.3597 32.798 49.9643 24.9822 49.9643C17.1663 49.9643 10.207 46.3597 5.60314 40.7566H24.9822C29.9786 40.7566 34.4397 38.4011 37.3305 34.7609C37.8301 34.1185 38.2941 33.4761 38.6867 32.7623C39.0435 32.1199 39.3647 31.4418 39.6502 30.7637C40.364 28.9793 40.7566 27.0164 40.7566 24.9822C40.7566 22.9479 40.364 20.985 39.6502 19.2006H32.8337C34.0471 20.8066 34.7609 22.8051 34.7609 24.9822C34.7609 27.1592 34.0471 29.1577 32.8337 30.7637C32.2627 31.5132 31.6203 32.1913 30.8708 32.7623C29.2291 34.0114 27.1949 34.7609 24.9822 34.7609H3.46181C2.96217 34.7609 2.42684 34.7252 1.96288 34.6538C0.678087 31.6916 0 28.4083 0 24.9822C0 21.556 0.678087 18.2727 1.96288 15.3105C2.46253 15.2391 2.96217 15.2034 3.46181 15.2034H7.81585C9.17202 12.848 10.9565 10.8137 13.0978 9.20771H5.60314C10.207 3.56888 17.1663 0 24.9822 0C32.798 0 39.7573 3.56888 44.3612 9.20771H24.9822C19.9857 9.20771 15.4889 11.5632 12.5981 15.2034C12.0985 15.8458 11.6345 16.4882 11.242 17.202C10.8851 17.8444 10.5639 18.5225 10.2784 19.2006C9.5646 20.985 9.17202 22.9479 9.17202 24.9822C9.17202 27.0164 9.5646 28.9793 10.2784 30.7637H17.0949C15.8815 29.1577 15.1677 27.1592 15.1677 24.9822C15.1677 22.8051 15.8815 20.8066 17.0949 19.2006C17.666 18.4511 18.3084 17.773 19.0578 17.202C20.6995 15.9529 22.7338 15.2034 24.9465 15.2034H46.4668C46.9665 15.2034 47.4661 15.2391 47.9657 15.3105C49.2862 18.2727 49.9643 21.556 49.9643 24.9822Z" fill="url(#paint0_linear_1_204)"/>
<defs>
<linearGradient id="paint0_linear_1_204" x1="42.6472" y1="7.31613" x2="7.31706" y2="42.6463" gradientUnits="userSpaceOnUse">
<stop offset="0.00558659" stop-color="#BF0097"/>
<stop offset="0.1187" stop-color="#B90297"/>
<stop offset="0.2667" stop-color="#A90899"/>
<stop offset="0.4342" stop-color="#8E129B"/>
<stop offset="0.6161" stop-color="#68209E"/>
<stop offset="0.8081" stop-color="#3832A2"/>
<stop offset="1" stop-color="#0046A6"/>
</linearGradient>
</defs>
</svg>
